<svg width="1174" height="645" viewBox="0 0 1174 645" fill="none" xmlns="http://www.w3.org/2000/svg">
<g clip-path="url(#clip0_608_22732)">
<rect width="1174" height="645" rx="31.5591" fill="#D9D9D9"/>
<g clip-path="url(#clip1_608_22732)">
<rect width="258" height="1762" fill="#F9FBFD"/>
<rect width="280" height="58" transform="translate(-11 16)" fill="white"/>
<rect x="17" y="16" width="224" height="58" rx="5" fill="#F9FBFD"/>
<rect x="33" y="25" width="40" height="40" rx="20" fill="#B4B4B4"/>
<rect x="45.667" y="37.667" width="14.6667" height="14.6667" rx="7.33333" fill="#E6E6E6"/>
<rect x="89.5" y="31" width="53.8244" height="10" rx="5" fill="#E6E6E6" stroke="#E6E6E6"/>
<rect x="89.5" y="50" width="125" height="9" rx="4.5" fill="#E6E6E6" stroke="#E6E6E6"/>
<rect x="17.5" y="125" width="162.053" height="10" rx="5" fill="#E6E6E6" stroke="#E6E6E6"/>
<rect x="224.333" y="123.333" width="13.3333" height="13.3333" rx="6.66667" fill="#E6E6E6"/>
<rect width="6" height="6" transform="translate(45 179)" fill="white"/>
<rect x="45.5" y="179.5" width="5" height="5" rx="2.5" fill="#E6E6E6" stroke="#E6E6E6"/>
<rect x="63.5" y="177" width="150.164" height="10" rx="5" fill="#E6E6E6" stroke="#E6E6E6"/>
<rect width="6" height="6" transform="translate(45 231)" fill="white"/>
<rect x="45.5" y="231.5" width="5" height="5" rx="2.5" fill="#E6E6E6" stroke="#E6E6E6"/>
<rect x="63.5" y="229" width="150.164" height="10" rx="5" fill="#E6E6E6" stroke="#E6E6E6"/>
<rect width="6" height="6" transform="translate(45 283)" fill="white"/>
<rect x="45.5" y="283.5" width="5" height="5" rx="2.5" fill="#E6E6E6" stroke="#E6E6E6"/>
<rect x="63.5" y="281" width="150.164" height="10" rx="5" fill="#E6E6E6" stroke="#E6E6E6"/>
<rect width="6" height="6" transform="translate(45 335)" fill="white"/>
<rect x="45.5" y="335.5" width="5" height="5" rx="2.5" fill="#E6E6E6" stroke="#E6E6E6"/>
<rect x="63.5" y="333" width="150.164" height="10" rx="5" fill="#E6E6E6" stroke="#E6E6E6"/>
</g>
<rect x="290" y="42.9336" width="201.521" height="133.289" rx="7.93388" fill="#F9FBFD"/>
<rect x="305.868" y="55.6279" width="31.7355" height="31.7355" rx="15.8678" fill="#B4B4B4"/>
<rect x="315.918" y="65.6777" width="11.6364" height="11.6364" rx="5.81818" fill="#E6E6E6"/>
<rect x="344.347" y="67.925" width="57.1512" height="7.1405" rx="3.57025" fill="#E6E6E6" stroke="#E6E6E6" stroke-width="0.793388"/>
<rect x="456.612" y="61.9746" width="19.0413" height="19.0413" rx="3.96694" fill="#F9FBFD"/>
<rect x="460.182" y="70.1729" width="11.9008" height="2.64463" rx="1.32231" fill="#E6E6E6"/>
<rect x="306.264" y="103.628" width="73.0826" height="15.0744" rx="7.53719" fill="#E6E6E6" stroke="#E6E6E6" stroke-width="0.793388"/>
<rect x="306.264" y="129.017" width="73.0826" height="7.1405" rx="3.57025" fill="#E6E6E6" stroke="#E6E6E6" stroke-width="0.793388"/>
<rect x="305.868" y="146.074" width="46.0165" height="17.4545" rx="8.72727" fill="#E6E9EC"/>
<rect x="322.132" y="150.041" width="24.595" height="9.52066" rx="4.76033" fill="#E6E6E6" stroke="#E6E6E6" stroke-width="0.793388"/>
<rect x="361.801" y="151.232" width="48.9175" height="7.1405" rx="3.57025" fill="#E6E6E6" stroke="#E6E6E6" stroke-width="0.793388"/>
<rect x="504.215" y="42.9336" width="201.521" height="133.289" rx="7.93388" fill="#F9FBFD"/>
<rect x="520.083" y="55.6279" width="31.7355" height="31.7355" rx="15.8678" fill="#B4B4B4"/>
<rect x="530.133" y="65.6777" width="11.6364" height="11.6364" rx="5.81818" fill="#E6E6E6"/>
<rect x="558.562" y="67.925" width="57.1512" height="7.1405" rx="3.57025" fill="#E6E6E6" stroke="#E6E6E6" stroke-width="0.793388"/>
<rect x="670.826" y="61.9746" width="19.0413" height="19.0413" rx="3.96694" fill="#F9FBFD"/>
<rect x="674.396" y="70.1729" width="11.9008" height="2.64463" rx="1.32231" fill="#E6E6E6"/>
<rect x="520.479" y="103.628" width="73.0826" height="15.0744" rx="7.53719" fill="#E6E6E6" stroke="#E6E6E6" stroke-width="0.793388"/>
<rect x="520.479" y="129.017" width="73.0826" height="7.1405" rx="3.57025" fill="#E6E6E6" stroke="#E6E6E6" stroke-width="0.793388"/>
<rect x="520.083" y="146.074" width="46.0165" height="17.4545" rx="8.72727" fill="#E6E9EC"/>
<rect x="536.347" y="150.041" width="24.595" height="9.52066" rx="4.76033" fill="#E6E6E6" stroke="#E6E6E6" stroke-width="0.793388"/>
<rect x="576.016" y="151.232" width="48.9175" height="7.1405" rx="3.57025" fill="#E6E6E6" stroke="#E6E6E6" stroke-width="0.793388"/>
<rect x="718.43" y="42.9336" width="201.521" height="133.289" rx="7.93388" fill="#F9FBFD"/>
<rect x="734.297" y="55.6279" width="31.7355" height="31.7355" rx="15.8678" fill="#B4B4B4"/>
<rect x="744.347" y="65.6777" width="11.6364" height="11.6364" rx="5.81818" fill="#E6E6E6"/>
<rect x="772.777" y="67.925" width="57.1512" height="7.1405" rx="3.57025" fill="#E6E6E6" stroke="#E6E6E6" stroke-width="0.793388"/>
<rect x="885.041" y="61.9746" width="19.0413" height="19.0413" rx="3.96694" fill="#F9FBFD"/>
<rect x="888.611" y="70.1729" width="11.9008" height="2.64463" rx="1.32231" fill="#E6E6E6"/>
<rect x="734.694" y="103.628" width="73.0826" height="15.0744" rx="7.53719" fill="#E6E6E6" stroke="#E6E6E6" stroke-width="0.793388"/>
<rect x="734.694" y="129.017" width="73.0826" height="7.1405" rx="3.57025" fill="#E6E6E6" stroke="#E6E6E6" stroke-width="0.793388"/>
<rect x="734.297" y="146.074" width="46.0165" height="17.4545" rx="8.72727" fill="#E6E9EC"/>
<rect x="750.562" y="150.041" width="24.595" height="9.52066" rx="4.76033" fill="#E6E6E6" stroke="#E6E6E6" stroke-width="0.793388"/>
<rect x="790.231" y="151.232" width="48.9175" height="7.1405" rx="3.57025" fill="#E6E6E6" stroke="#E6E6E6" stroke-width="0.793388"/>
<rect x="932.645" y="42.9336" width="201.521" height="133.289" rx="7.93388" fill="#F9FBFD"/>
<rect x="948.512" y="55.6279" width="31.7355" height="31.7355" rx="15.8678" fill="#B4B4B4"/>
<rect x="958.562" y="65.6777" width="11.6364" height="11.6364" rx="5.81818" fill="#E6E6E6"/>
<rect x="986.992" y="67.925" width="57.1512" height="7.1405" rx="3.57025" fill="#E6E6E6" stroke="#E6E6E6" stroke-width="0.793388"/>
<rect x="1099.26" y="61.9746" width="19.0413" height="19.0413" rx="3.96694" fill="#F9FBFD"/>
<rect x="1102.83" y="70.1729" width="11.9008" height="2.64463" rx="1.32231" fill="#E6E6E6"/>
<rect x="948.909" y="103.628" width="73.0826" height="15.0744" rx="7.53719" fill="#E6E6E6" stroke="#E6E6E6" stroke-width="0.793388"/>
<rect x="948.909" y="129.017" width="73.0826" height="7.1405" rx="3.57025" fill="#E6E6E6" stroke="#E6E6E6" stroke-width="0.793388"/>
<rect x="948.512" y="146.074" width="46.0165" height="17.4545" rx="8.72727" fill="#E6E9EC"/>
<rect x="964.777" y="150.041" width="24.595" height="9.52066" rx="4.76033" fill="#E6E6E6" stroke="#E6E6E6" stroke-width="0.793388"/>
<rect x="1004.45" y="151.232" width="48.9175" height="7.1405" rx="3.57025" fill="#E6E6E6" stroke="#E6E6E6" stroke-width="0.793388"/>
<g clip-path="url(#clip2_608_22732)">
<rect x="874.728" y="196.852" width="259.438" height="414.149" rx="7.93388" fill="#F9FBFD"/>
<rect width="259.438" height="44.4298" transform="translate(874.728 196.852)" fill="#F9FBFD"/>
<rect x="890.992" y="214.703" width="89.9981" height="8.72727" rx="4.36364" fill="#E6E6E6" stroke="#E6E6E6" stroke-width="0.793388"/>
<rect x="1102.83" y="217.744" width="11.9008" height="2.64463" rx="1.32231" fill="#E6E6E6"/>
<rect x="940.975" y="260.322" width="126.942" height="126.942" fill="white"/>
<mask id="path-66-outside-1_608_22732" maskUnits="userSpaceOnUse" x="938.975" y="258.322" width="131" height="131" fill="black">
<rect fill="white" x="938.975" y="258.322" width="131" height="131"/>
<path d="M1067.92 323.793C1067.92 358.847 1039.5 387.264 1004.45 387.264C969.392 387.264 940.975 358.847 940.975 323.793C940.975 288.739 969.392 260.322 1004.45 260.322C1039.5 260.322 1067.92 288.739 1067.92 323.793ZM972.711 323.793C972.711 341.32 986.919 355.529 1004.45 355.529C1021.97 355.529 1036.18 341.32 1036.18 323.793C1036.18 306.266 1021.97 292.058 1004.45 292.058C986.919 292.058 972.711 306.266 972.711 323.793Z"/>
</mask>
<path d="M1067.92 323.793C1067.92 358.847 1039.5 387.264 1004.45 387.264C969.392 387.264 940.975 358.847 940.975 323.793C940.975 288.739 969.392 260.322 1004.45 260.322C1039.5 260.322 1067.92 288.739 1067.92 323.793ZM972.711 323.793C972.711 341.32 986.919 355.529 1004.45 355.529C1021.97 355.529 1036.18 341.32 1036.18 323.793C1036.18 306.266 1021.97 292.058 1004.45 292.058C986.919 292.058 972.711 306.266 972.711 323.793Z" fill="#E6E6E6"/>
<path d="M1067.92 323.793C1067.92 358.847 1039.5 387.264 1004.45 387.264C969.392 387.264 940.975 358.847 940.975 323.793C940.975 288.739 969.392 260.322 1004.45 260.322C1039.5 260.322 1067.92 288.739 1067.92 323.793ZM972.711 323.793C972.711 341.32 986.919 355.529 1004.45 355.529C1021.97 355.529 1036.18 341.32 1036.18 323.793C1036.18 306.266 1021.97 292.058 1004.45 292.058C986.919 292.058 972.711 306.266 972.711 323.793Z" stroke="#E6E6E6" stroke-width="2.64992" mask="url(#path-66-outside-1_608_22732)"/>
<mask id="path-67-outside-2_608_22732" maskUnits="userSpaceOnUse" x="950.975" y="258.322" width="119" height="131" fill="black">
<rect fill="white" x="950.975" y="258.322" width="119" height="131"/>
<path d="M1004.51 260.322C1015.38 260.322 1026.07 263.112 1035.56 268.424C1045.04 273.735 1053.01 281.392 1058.69 290.661C1064.37 299.931 1067.57 310.502 1068 321.365C1068.43 332.228 1066.06 343.019 1061.13 352.705C1056.19 362.391 1048.85 370.649 1039.81 376.689C1030.77 382.729 1020.34 386.348 1009.5 387.201C998.66 388.054 987.785 386.112 977.912 381.561C968.04 377.009 959.5 370.001 953.11 361.206L978.811 342.533C982.006 346.93 986.276 350.434 991.213 352.71C996.149 354.986 1001.59 355.957 1007.01 355.53C1012.42 355.104 1017.64 353.294 1022.16 350.274C1026.68 347.254 1030.35 343.125 1032.82 338.282C1035.29 333.439 1036.47 328.044 1036.26 322.612C1036.04 317.181 1034.44 311.895 1031.6 307.261C1028.76 302.626 1024.78 298.798 1020.04 296.142C1015.29 293.486 1009.95 292.091 1004.51 292.091V260.322Z"/>
</mask>
<path d="M1004.51 260.322C1015.38 260.322 1026.07 263.112 1035.56 268.424C1045.04 273.735 1053.01 281.392 1058.69 290.661C1064.37 299.931 1067.57 310.502 1068 321.365C1068.43 332.228 1066.06 343.019 1061.13 352.705C1056.19 362.391 1048.85 370.649 1039.81 376.689C1030.77 382.729 1020.34 386.348 1009.5 387.201C998.66 388.054 987.785 386.112 977.912 381.561C968.04 377.009 959.5 370.001 953.11 361.206L978.811 342.533C982.006 346.93 986.276 350.434 991.213 352.71C996.149 354.986 1001.59 355.957 1007.01 355.53C1012.42 355.104 1017.64 353.294 1022.16 350.274C1026.68 347.254 1030.35 343.125 1032.82 338.282C1035.29 333.439 1036.47 328.044 1036.26 322.612C1036.04 317.181 1034.44 311.895 1031.6 307.261C1028.76 302.626 1024.78 298.798 1020.04 296.142C1015.29 293.486 1009.95 292.091 1004.51 292.091V260.322Z" fill="#E6E6E6"/>
<path d="M1004.51 260.322C1015.38 260.322 1026.07 263.112 1035.56 268.424C1045.04 273.735 1053.01 281.392 1058.69 290.661C1064.37 299.931 1067.57 310.502 1068 321.365C1068.43 332.228 1066.06 343.019 1061.13 352.705C1056.19 362.391 1048.85 370.649 1039.81 376.689C1030.77 382.729 1020.34 386.348 1009.5 387.201C998.66 388.054 987.785 386.112 977.912 381.561C968.04 377.009 959.5 370.001 953.11 361.206L978.811 342.533C982.006 346.93 986.276 350.434 991.213 352.71C996.149 354.986 1001.59 355.957 1007.01 355.53C1012.42 355.104 1017.64 353.294 1022.16 350.274C1026.68 347.254 1030.35 343.125 1032.82 338.282C1035.29 333.439 1036.47 328.044 1036.26 322.612C1036.04 317.181 1034.44 311.895 1031.6 307.261C1028.76 302.626 1024.78 298.798 1020.04 296.142C1015.29 293.486 1009.95 292.091 1004.51 292.091V260.322Z" stroke="#E6E6E6" stroke-width="2.64992" mask="url(#path-67-outside-2_608_22732)"/>
<rect width="7.93388" height="7.93388" transform="translate(890.595 417.413)" fill="#FFC772"/>
<rect x="890.992" y="417.81" width="7.1405" height="7.1405" rx="1.98347" fill="#E6E6E6" stroke="#E6E6E6" stroke-width="0.793388"/>
<rect x="903.686" y="417.413" width="46.8099" height="7.93388" rx="3.96694" fill="#E6E6E6" stroke="#E6E6E6" stroke-width="0.793388"/>
<rect x="1038.56" y="417.412" width="26.9752" height="7.93388" rx="3.96694" fill="#E6E6E6" stroke="#E6E6E6" stroke-width="0.793388"/>
<rect x="1072.28" y="412.652" width="46.0165" height="17.4545" rx="8.72727" fill="#E6E9EC"/>
<rect x="1088.55" y="416.619" width="24.595" height="9.52066" rx="4.76033" fill="#E6E6E6" stroke="#E6E6E6" stroke-width="0.793388"/>
<rect width="7.93388" height="7.93388" transform="translate(890.595 447.562)" fill="#FFC772"/>
<rect x="890.992" y="447.958" width="7.1405" height="7.1405" rx="1.98347" fill="#E6E6E6" stroke="#E6E6E6" stroke-width="0.793388"/>
<rect x="903.686" y="447.562" width="46.8099" height="7.93388" rx="3.96694" fill="#E6E6E6" stroke="#E6E6E6" stroke-width="0.793388"/>
<rect x="1038.56" y="447.561" width="26.9752" height="7.93388" rx="3.96694" fill="#E6E6E6" stroke="#E6E6E6" stroke-width="0.793388"/>
<rect x="1072.28" y="442.801" width="46.0165" height="17.4545" rx="8.72727" fill="#E6E9EC"/>
<rect x="1088.55" y="446.768" width="24.595" height="9.52066" rx="4.76033" fill="#E6E6E6" stroke="#E6E6E6" stroke-width="0.793388"/>
<rect width="7.93388" height="7.93388" transform="translate(890.595 477.711)" fill="#FFC772"/>
<rect x="890.992" y="478.108" width="7.1405" height="7.1405" rx="1.98347" fill="#E6E6E6" stroke="#E6E6E6" stroke-width="0.793388"/>
<rect x="903.686" y="477.711" width="46.8099" height="7.93388" rx="3.96694" fill="#E6E6E6" stroke="#E6E6E6" stroke-width="0.793388"/>
<rect x="1038.56" y="477.71" width="26.9752" height="7.93388" rx="3.96694" fill="#E6E6E6" stroke="#E6E6E6" stroke-width="0.793388"/>
<rect x="1072.28" y="472.95" width="46.0165" height="17.4545" rx="8.72727" fill="#E6E9EC"/>
<rect x="1088.55" y="476.917" width="24.595" height="9.52066" rx="4.76033" fill="#E6E6E6" stroke="#E6E6E6" stroke-width="0.793388"/>
<rect width="7.93388" height="7.93388" transform="translate(890.595 507.859)" fill="#FFC772"/>
<rect x="890.992" y="508.256" width="7.1405" height="7.1405" rx="1.98347" fill="#E6E6E6" stroke="#E6E6E6" stroke-width="0.793388"/>
<rect x="903.686" y="507.86" width="46.8099" height="7.93388" rx="3.96694" fill="#E6E6E6" stroke="#E6E6E6" stroke-width="0.793388"/>
<rect x="1038.56" y="507.859" width="26.9752" height="7.93388" rx="3.96694" fill="#E6E6E6" stroke="#E6E6E6" stroke-width="0.793388"/>
<rect x="1072.28" y="503.099" width="46.0165" height="17.4545" rx="8.72727" fill="#E6E9EC"/>
<rect x="1088.55" y="507.066" width="24.595" height="9.52066" rx="4.76033" fill="#E6E6E6" stroke="#E6E6E6" stroke-width="0.793388"/>
<rect width="259.438" height="33.3223" transform="translate(874.728 545.942)" fill="#F9FBFD"/>
<rect x="890.992" y="559.033" width="88.6172" height="7.1405" rx="3.57025" fill="#E6E6E6" stroke="#E6E6E6" stroke-width="0.793388"/>
</g>
<g clip-path="url(#clip3_608_22732)">
<rect x="290" y="196.852" width="574.413" height="327.669" rx="7.93388" fill="#F9FBFD"/>
<rect width="574.413" height="44.4298" transform="translate(290 196.852)" fill="#F9FBFD"/>
<rect x="306.264" y="214.703" width="227.048" height="8.72727" rx="4.36364" fill="#E6E6E6" stroke="#E6E6E6" stroke-width="0.793388"/>
<rect x="833.074" y="217.744" width="11.9008" height="2.64463" rx="1.32231" fill="#E6E6E6"/>
<rect width="7.93388" height="7.93388" transform="translate(691.455 257.149)" fill="#FFC772"/>
<rect x="691.851" y="257.546" width="7.1405" height="7.1405" rx="1.98347" fill="#E6E6E6" stroke="#E6E6E6" stroke-width="0.793388"/>
<rect x="704.546" y="258.339" width="26.1818" height="5.55372" rx="2.77686" fill="#E6E6E6" stroke="#E6E6E6" stroke-width="0.793388"/>
<rect width="7.93388" height="7.93388" transform="translate(750.165 257.149)" fill="#FFC772"/>
<rect x="750.561" y="257.546" width="7.1405" height="7.1405" rx="1.98347" fill="#E6E6E6" stroke="#E6E6E6" stroke-width="0.793388"/>
<rect x="763.256" y="258.339" width="26.1818" height="5.55372" rx="2.77686" fill="#E6E6E6" stroke="#E6E6E6" stroke-width="0.793388"/>
<rect width="7.93388" height="7.93388" transform="translate(808.876 257.149)" fill="#FFC772"/>
<rect x="809.273" y="257.546" width="7.1405" height="7.1405" rx="1.98347" fill="#E6E6E6" stroke="#E6E6E6" stroke-width="0.793388"/>
<rect x="821.967" y="258.339" width="26.1818" height="5.55372" rx="2.77686" fill="#E6E6E6" stroke="#E6E6E6" stroke-width="0.793388"/>
<rect x="306.264" y="275" width="25.3884" height="5.55372" rx="2.77686" fill="#E6E6E6" stroke="#E6E6E6" stroke-width="0.793388"/>
<rect x="308.644" y="332.917" width="23.0083" height="5.55372" rx="2.77686" fill="#E6E6E6" stroke="#E6E6E6" stroke-width="0.793388"/>
<rect x="311.818" y="390.835" width="19.8347" height="5.55372" rx="2.77686" fill="#E6E6E6" stroke="#E6E6E6" stroke-width="0.793388"/>
<rect x="316.578" y="448.752" width="15.0744" height="5.55372" rx="2.77686" fill="#E6E6E6" stroke="#E6E6E6" stroke-width="0.793388"/>
<rect x="306.264" y="464.62" width="25.3884" height="5.55372" fill="#E6E6E6" stroke="#E6E6E6" stroke-width="0.793388"/>
<rect x="341.57" y="274.604" width="507.116" height="0.01" fill="#E6E6E6"/>
<rect x="341.57" y="334.647" width="507.116" height="0.01" fill="#E6E6E6"/>
<rect x="341.57" y="394.691" width="507.116" height="0.01" fill="#E6E6E6"/>
<rect x="341.57" y="454.735" width="507.116" height="0.01" fill="#E6E6E6"/>
<rect x="341.967" y="464.654" width="506.322" height="5.55372" fill="#E6E6E6" stroke="#E6E6E6" stroke-width="0.793388"/>
<path d="M347.541 341.164C347.541 340.507 348.074 339.974 348.731 339.974H365.067C365.724 339.974 366.257 340.507 366.257 341.164V454.307H347.541V341.164Z" fill="#E6E6E6" stroke="#E6E6E6" stroke-width="0.793388"/>
<rect x="343.785" y="464.62" width="26.1818" height="5.55372" rx="2.77686" fill="#E6E6E6" stroke="#E6E6E6" stroke-width="0.793388"/>
<path d="M390.893 287.59C390.893 286.932 391.426 286.4 392.083 286.4H408.419C409.076 286.4 409.609 286.932 409.609 287.59V454.307H390.893V287.59Z" fill="#E6E6E6" stroke="#E6E6E6" stroke-width="0.793388"/>
<rect x="387.091" y="464.62" width="26.1818" height="5.55372" rx="2.77686" fill="#E6E6E6" stroke="#E6E6E6" stroke-width="0.793388"/>
<path d="M434.131 300.75C434.131 300.093 434.664 299.56 435.321 299.56H451.955C452.612 299.56 453.145 300.093 453.145 300.75V454.307H434.131V300.75Z" fill="#E6E6E6" stroke="#E6E6E6" stroke-width="0.793388"/>
<rect x="430.396" y="464.62" width="26.1818" height="5.55372" rx="2.77686" fill="#E6E6E6" stroke="#E6E6E6" stroke-width="0.793388"/>
<path d="M477.582 326.346C477.582 325.688 478.114 325.155 478.772 325.155H495.651C496.309 325.155 496.841 325.688 496.841 326.346V454.307H477.582V326.346Z" fill="#E6E6E6" stroke="#E6E6E6" stroke-width="0.793388"/>
<rect x="473.702" y="464.62" width="26.1818" height="5.55372" rx="2.77686" fill="#E6E6E6" stroke="#E6E6E6" stroke-width="0.793388"/>
<path d="M520.355 389.038C520.355 388.381 520.888 387.848 521.545 387.848H538.425C539.082 387.848 539.615 388.381 539.615 389.038V454.307H520.355V389.038Z" fill="#E6E6E6" stroke="#E6E6E6" stroke-width="0.793388"/>
<rect x="517.008" y="464.62" width="26.1818" height="5.55372" rx="2.77686" fill="#E6E6E6" stroke="#E6E6E6" stroke-width="0.793388"/>
<path d="M564.048 337.588C564.048 336.93 564.58 336.398 565.238 336.398H581.872C582.529 336.398 583.062 336.93 583.062 337.588V454.306H564.048V337.588Z" fill="#E6E6E6" stroke="#E6E6E6" stroke-width="0.793388"/>
<rect x="560.314" y="464.62" width="26.1818" height="5.55372" rx="2.77686" fill="#E6E6E6" stroke="#E6E6E6" stroke-width="0.793388"/>
<path d="M607.354 354.984C607.354 354.327 607.887 353.794 608.544 353.794H625.178C625.835 353.794 626.368 354.327 626.368 354.984V454.307H607.354V354.984Z" fill="#E6E6E6" stroke="#E6E6E6" stroke-width="0.793388"/>
<rect x="603.62" y="464.62" width="26.1818" height="5.55372" rx="2.77686" fill="#E6E6E6" stroke="#E6E6E6" stroke-width="0.793388"/>
<path d="M650.66 376.473C650.66 375.815 651.193 375.282 651.85 375.282H668.484C669.141 375.282 669.674 375.815 669.674 376.473V454.306H650.66V376.473Z" fill="#E6E6E6" stroke="#E6E6E6" stroke-width="0.793388"/>
<rect x="646.925" y="464.62" width="26.1818" height="5.55372" rx="2.77686" fill="#E6E6E6" stroke="#E6E6E6" stroke-width="0.793388"/>
<path d="M693.965 432.754C693.965 432.097 694.498 431.564 695.155 431.564H711.789C712.446 431.564 712.979 432.097 712.979 432.754V454.306H693.965V432.754Z" fill="#E6E6E6" stroke="#E6E6E6" stroke-width="0.793388"/>
<rect x="690.231" y="464.62" width="26.1818" height="5.55372" rx="2.77686" fill="#E6E6E6" stroke="#E6E6E6" stroke-width="0.793388"/>
<path d="M737.271 342.704C737.271 342.047 737.804 341.514 738.461 341.514H755.095C755.752 341.514 756.285 342.047 756.285 342.704V454.306H737.271V342.704Z" fill="#E6E6E6" stroke="#E6E6E6" stroke-width="0.793388"/>
<rect x="733.537" y="464.62" width="26.1818" height="5.55372" rx="2.77686" fill="#E6E6E6" stroke="#E6E6E6" stroke-width="0.793388"/>
<path d="M780.577 288.471C780.577 287.813 781.11 287.28 781.767 287.28H798.401C799.059 287.28 799.591 287.813 799.591 288.471V454.307H780.577V288.471Z" fill="#E6E6E6" stroke="#E6E6E6" stroke-width="0.793388"/>
<rect x="776.843" y="464.62" width="26.1818" height="5.55372" rx="2.77686" fill="#E6E6E6" stroke="#E6E6E6" stroke-width="0.793388"/>
<path d="M823.732 276.19C823.732 275.533 824.265 275 824.922 275H841.556C842.214 275 842.746 275.533 842.746 276.19V454.306H823.732V276.19Z" fill="#E6E6E6" stroke="#E6E6E6" stroke-width="0.793388"/>
<rect x="820.148" y="464.62" width="26.1818" height="5.55372" rx="2.77686" fill="#E6E6E6" stroke="#E6E6E6" stroke-width="0.793388"/>
<rect width="574.413" height="38.0826" transform="translate(290 486.438)" fill="#F9FBFD"/>
<rect x="306.264" y="501.909" width="195.289" height="7.1405" rx="3.57025" fill="#E6E6E6" stroke="#E6E6E6" stroke-width="0.793388"/>
<rect x="788.645" y="499.53" width="42.0496" height="11.9008" rx="5.95041" fill="#E6E6E6" stroke="#E6E6E6" stroke-width="0.793388"/>
<rect x="837.438" y="500.38" width="9.52066" height="10.1993" rx="4.76033" fill="#E6E6E6"/>
</g>
<rect x="290" y="541.182" width="178.777" height="69.8182" rx="7.93388" fill="#F9FBFD"/>
<rect x="306.264" y="554.273" width="50.7587" height="7.1405" rx="3.57025" fill="#E6E6E6" stroke="#E6E6E6" stroke-width="0.793388"/>
<rect x="306.264" y="568.554" width="50.7587" height="15.0744" rx="7.53719" fill="#E6E6E6" stroke="#E6E6E6" stroke-width="0.793388"/>
<rect x="424.347" y="553.876" width="28.562" height="28.562" rx="14.281" fill="#B4B4B4"/>
<rect x="432.677" y="561.782" width="11.9008" height="12.7491" rx="5.95041" fill="#E6E6E6"/>
<rect x="306.264" y="590.769" width="63.1864" height="7.1405" rx="3.57025" fill="#E6E6E6" stroke="#E6E6E6" stroke-width="0.793388"/>
<rect x="487.818" y="541.182" width="178.777" height="69.8182" rx="7.93388" fill="#F9FBFD"/>
<rect x="504.082" y="554.273" width="50.7587" height="7.1405" rx="3.57025" fill="#E6E6E6" stroke="#E6E6E6" stroke-width="0.793388"/>
<rect x="504.082" y="568.554" width="50.7587" height="15.0744" rx="7.53719" fill="#E6E6E6" stroke="#E6E6E6" stroke-width="0.793388"/>
<rect x="622.165" y="553.876" width="28.562" height="28.562" rx="14.281" fill="#B4B4B4"/>
<rect x="630.496" y="561.782" width="11.9008" height="12.7491" rx="5.95041" fill="#E6E6E6"/>
<rect x="504.082" y="590.769" width="63.1864" height="7.1405" rx="3.57025" fill="#E6E6E6" stroke="#E6E6E6" stroke-width="0.793388"/>
<rect x="685.636" y="541.182" width="178.777" height="69.8182" rx="7.93388" fill="#F9FBFD"/>
<rect x="701.901" y="554.273" width="50.7587" height="7.1405" rx="3.57025" fill="#E6E6E6" stroke="#E6E6E6" stroke-width="0.793388"/>
<rect x="701.901" y="568.554" width="50.7587" height="15.0744" rx="7.53719" fill="#E6E6E6" stroke="#E6E6E6" stroke-width="0.793388"/>
<rect x="819.983" y="553.876" width="28.562" height="28.562" rx="14.281" fill="#B4B4B4"/>
<rect x="828.314" y="561.782" width="11.9008" height="12.7491" rx="5.95041" fill="#E6E6E6"/>
<rect x="701.901" y="590.769" width="63.1864" height="7.1405" rx="3.57025" fill="#E6E6E6" stroke="#E6E6E6" stroke-width="0.793388"/>
</g>
<defs>
<clipPath id="clip0_608_22732">
<rect width="1174" height="645" rx="31.5591" fill="white"/>
</clipPath>
<clipPath id="clip1_608_22732">
<rect width="258" height="1762" fill="white"/>
</clipPath>
<clipPath id="clip2_608_22732">
<rect x="874.728" y="196.852" width="259.438" height="414.149" rx="7.93388" fill="white"/>
</clipPath>
<clipPath id="clip3_608_22732">
<rect x="290" y="196.852" width="574.413" height="327.669" rx="7.93388" fill="white"/>
</clipPath>
</defs>
</svg>
