<?xml version="1.0" encoding="UTF-8" standalone="no"?>
<!-- Generator: Adobe Illustrator 26.1.0, SVG Export Plug-In . SVG Version: 6.00 Build 0)  -->

<svg
   version="1.1"
   id="Layer_1"
   x="0px"
   y="0px"
   viewBox="0 0 75 74.999999"
   xml:space="preserve"
   sodipodi:docname="logo.svg"
   width="75"
   height="75"
   inkscape:version="1.3 (0e150ed6c4, 2023-07-21)"
   xmlns:inkscape="http://www.inkscape.org/namespaces/inkscape"
   xmlns:sodipodi="http://sodipodi.sourceforge.net/DTD/sodipodi-0.dtd"
   xmlns="http://www.w3.org/2000/svg"
   xmlns:svg="http://www.w3.org/2000/svg"><defs
   id="defs6" /><sodipodi:namedview
   id="namedview6"
   pagecolor="#505050"
   bordercolor="#eeeeee"
   borderopacity="1"
   inkscape:showpageshadow="0"
   inkscape:pageopacity="0"
   inkscape:pagecheckerboard="0"
   inkscape:deskcolor="#d1d1d1"
   inkscape:zoom="2.6306833"
   inkscape:cx="133.04528"
   inkscape:cy="62.151153"
   inkscape:window-width="1920"
   inkscape:window-height="1001"
   inkscape:window-x="-9"
   inkscape:window-y="41"
   inkscape:window-maximized="1"
   inkscape:current-layer="Layer_1" />&#10;<style
   type="text/css"
   id="style1">&#10;	.st0{fill:#117077;}&#10;	.st1{fill:#00ADC4;}&#10;</style>&#10;&#10;<g
   id="g7"
   transform="translate(429.68716,94.614807)"><rect
     style="fill:none;stroke-width:0.094837;stroke-linecap:round;stroke-linejoin:round"
     id="rect1"
     width="75"
     height="75"
     x="-429.68716"
     y="-94.614807"
     ry="0.44048956" /><g
     id="g6"
     transform="matrix(0.17561919,0,0,0.17561919,-560.80793,-151.96647)">&#10;	<g
   id="g5">&#10;		<g
   id="g1">&#10;			<path
   class="st0"
   d="M 1138.9,494.7 986.2,408.3 c -8,-4.5 -17,-6.9 -26.1,-6.8 -9.1,0 -18.1,2.2 -26.2,6.8 l -152.7,86.4 c -16.5,9.3 -26.7,27 -26.7,46.1 v 93.1 c 0,24.6 19.9,44.7 44.3,44.7 h 148.6 c 3.5,0 6.3,-2.9 6.3,-6.4 0,-3.1 -2.2,-5.6 -5,-6.2 v -0.2 h -150 c -17.5,0 -31.7,-14.3 -31.7,-31.9 v -93.1 c 0,-14.5 7.8,-27.8 20.3,-34.9 L 940,419.4 c 5.7,-3.2 12.2,-5 18.6,-5.1 h 0.4 c 0.2,0 0.3,0 0.5,0 0.1,0 0.3,0 0.5,0 0.5,0 1.4,0 1.4,0 6.5,0.1 12.9,1.9 18.6,5.1 l 152.7,86.4 c 12.5,7.1 20.3,20.5 20.3,34.9 v 44.8 c 0,4.8 -2.4,9.2 -6.5,11.7 -4.1,2.5 -9.1,2.8 -13.3,0.6 L 978.6,522.6 c -5.7,-2.9 -12.1,-4.3 -18.5,-4 -6.5,-0.2 -12.9,1.2 -18.6,4.1 l -62.7,31.8 c 3.4,2.7 5.6,6.7 6,11.2 l 62.3,-31.6 c 3.5,-1.8 7.5,-2.7 11.6,-2.7 0,0 0.4,0 1.4,0 0.9,0 1.4,0 1.4,0 4,0 8,1 11.6,2.7 l 154.6,75.2 c 8.2,4.1 17.8,3.7 25.6,-1.1 7.8,-4.9 12.5,-13.3 12.5,-22.6 v -44.8 c -0.2,-19.1 -10.4,-36.8 -26.9,-46.1 z"
   id="path1" />&#10;		</g>&#10;		<ellipse
   class="st1"
   cx="868.90002"
   cy="567.09998"
   rx="8.1999998"
   ry="8.3999996"
   id="ellipse1" />&#10;		<g
   id="g4">&#10;			<g
   id="g2">&#10;				<path
   class="st1"
   d="m 1028.2,663.2 c -0.2,0.6 -3.8,8.7 -27.3,8.7 -26.1,0 -28.3,-10.8 -28.3,-21 0,-9 3.2,-19.3 27.9,-19.3 21.6,0 27,7.8 27.8,9.1 h 6.7 l -0.9,-2.4 c -0.5,-1.4 -5.7,-13.4 -33.6,-13.4 -22.6,0 -34.1,8.7 -34.1,25.9 0,19.3 10.3,27.6 34.5,27.6 29.5,0 33,-12.3 33.3,-13.7 l 0.4,-2.1 h -6.3 z"
   id="path2" />&#10;			</g>&#10;			<g
   id="g3">&#10;				<path
   class="st1"
   d="m 1046.5,671.9 c 1.3,-9.2 8.4,-11.4 19.4,-13.6 9.6,-2 20.5,-4.2 20.5,-17.3 0,-5.9 -2.9,-15.9 -22.2,-15.9 -12.1,0 -18,4.5 -20.8,8.4 -2.1,2.8 -2.8,5.6 -3.1,7.4 h 6.3 c 0.9,-3.1 4.3,-9.1 17.6,-9.1 10.7,0 16.1,3.1 16.1,9.3 0,7.3 -5.3,8.7 -15.5,10.8 -10.4,2.1 -24.6,5.1 -24.6,23.5 v 1.1 2.2 h 46.4 v -6.6 h -40.1 z"
   id="path3" />&#10;			</g>&#10;		</g>&#10;	</g>&#10;</g></g><g
   id="g14"
   transform="matrix(1.5473863,0,0,1.5473863,773.7449,114.47479)"
   inkscape:export-filename="logo"
   inkscape:export-xdpi="96"
   inkscape:export-ydpi="96"><rect
     style="fill:none;stroke-width:0.094837;stroke-linecap:round;stroke-linejoin:round"
     id="rect2"
     width="75"
     height="75"
     x="-429.68716"
     y="-94.614807"
     ry="0.44048956" /><g
     id="g13"
     transform="matrix(0.17561919,0,0,0.17561919,-560.80793,-151.96647)">&#10;	<g
   id="g12">&#10;		<g
   id="g8">&#10;			<path
   class="st0"
   d="M 1138.9,494.7 986.2,408.3 c -8,-4.5 -17,-6.9 -26.1,-6.8 -9.1,0 -18.1,2.2 -26.2,6.8 l -152.7,86.4 c -16.5,9.3 -26.7,27 -26.7,46.1 v 93.1 c 0,24.6 19.9,44.7 44.3,44.7 h 148.6 c 3.5,0 6.3,-2.9 6.3,-6.4 0,-3.1 -2.2,-5.6 -5,-6.2 v -0.2 h -150 c -17.5,0 -31.7,-14.3 -31.7,-31.9 v -93.1 c 0,-14.5 7.8,-27.8 20.3,-34.9 L 940,419.4 c 5.7,-3.2 12.2,-5 18.6,-5.1 h 0.4 c 0.2,0 0.3,0 0.5,0 0.1,0 0.3,0 0.5,0 0.5,0 1.4,0 1.4,0 6.5,0.1 12.9,1.9 18.6,5.1 l 152.7,86.4 c 12.5,7.1 20.3,20.5 20.3,34.9 v 44.8 c 0,4.8 -2.4,9.2 -6.5,11.7 -4.1,2.5 -9.1,2.8 -13.3,0.6 L 978.6,522.6 c -5.7,-2.9 -12.1,-4.3 -18.5,-4 -6.5,-0.2 -12.9,1.2 -18.6,4.1 l -62.7,31.8 c 3.4,2.7 5.6,6.7 6,11.2 l 62.3,-31.6 c 3.5,-1.8 7.5,-2.7 11.6,-2.7 0,0 0.4,0 1.4,0 0.9,0 1.4,0 1.4,0 4,0 8,1 11.6,2.7 l 154.6,75.2 c 8.2,4.1 17.8,3.7 25.6,-1.1 7.8,-4.9 12.5,-13.3 12.5,-22.6 v -44.8 c -0.2,-19.1 -10.4,-36.8 -26.9,-46.1 z"
   id="path4"
   style="fill:#ffffff;fill-opacity:1" />&#10;		</g>&#10;		<ellipse
   class="st1"
   cx="868.90002"
   cy="567.09998"
   rx="8.1999998"
   ry="8.3999996"
   id="ellipse8" />&#10;		<g
   id="g11">&#10;			<g
   id="g9">&#10;				<path
   class="st1"
   d="m 1028.2,663.2 c -0.2,0.6 -3.8,8.7 -27.3,8.7 -26.1,0 -28.3,-10.8 -28.3,-21 0,-9 3.2,-19.3 27.9,-19.3 21.6,0 27,7.8 27.8,9.1 h 6.7 l -0.9,-2.4 c -0.5,-1.4 -5.7,-13.4 -33.6,-13.4 -22.6,0 -34.1,8.7 -34.1,25.9 0,19.3 10.3,27.6 34.5,27.6 29.5,0 33,-12.3 33.3,-13.7 l 0.4,-2.1 h -6.3 z"
   id="path8" />&#10;			</g>&#10;			<g
   id="g10">&#10;				<path
   class="st1"
   d="m 1046.5,671.9 c 1.3,-9.2 8.4,-11.4 19.4,-13.6 9.6,-2 20.5,-4.2 20.5,-17.3 0,-5.9 -2.9,-15.9 -22.2,-15.9 -12.1,0 -18,4.5 -20.8,8.4 -2.1,2.8 -2.8,5.6 -3.1,7.4 h 6.3 c 0.9,-3.1 4.3,-9.1 17.6,-9.1 10.7,0 16.1,3.1 16.1,9.3 0,7.3 -5.3,8.7 -15.5,10.8 -10.4,2.1 -24.6,5.1 -24.6,23.5 v 1.1 2.2 h 46.4 v -6.6 h -40.1 z"
   id="path9" />&#10;			</g>&#10;		</g>&#10;	</g>&#10;</g></g></svg>
